<svg xmlns="http://www.w3.org/2000/svg" viewBox="0 0 797.77 151.57"><defs><style>.cls-1{fill:#fff;}</style></defs><g id="Camada_2" data-name="Camada 2"><g id="Camada_1-2" data-name="Camada 1"><path class="cls-1" d="M273.13,77.73c0,1.13,0,2.34.09,3.62s.18,2.61.35,4L239.86,42.76a12.67,12.67,0,0,0-1.22-1.31,4.19,4.19,0,0,0-1.12-.76,4.91,4.91,0,0,0-1.31-.36,14.79,14.79,0,0,0-1.8-.1h-8.65v70.86h14.49v-38c0-1,0-2.15-.08-3.33s-.13-2.41-.26-3.68l33.41,42.27a8,8,0,0,0,2.55,2.12,7.54,7.54,0,0,0,3.19.6h8.56V40.23H273.13Z"></path><path class="cls-1" d="M339.88,66.84a22.84,22.84,0,0,0-8.1-5.16,29.09,29.09,0,0,0-10.45-1.8,29.55,29.55,0,0,0-10.54,1.8,23.41,23.41,0,0,0-8.17,5.16A22.77,22.77,0,0,0,297.33,75a29.33,29.33,0,0,0-1.88,10.78,29.85,29.85,0,0,0,1.88,10.86,22.93,22.93,0,0,0,5.29,8.22,23.52,23.52,0,0,0,8.17,5.21,29.33,29.33,0,0,0,10.54,1.82,28.87,28.87,0,0,0,10.45-1.82,23,23,0,0,0,8.1-5.21,23.39,23.39,0,0,0,5.25-8.22A29.85,29.85,0,0,0,347,85.76,29.33,29.33,0,0,0,345.13,75a23.23,23.23,0,0,0-5.25-8.14M329,97q-2.44,3.67-7.65,3.67T313.49,97Q311,93.35,311,85.85t2.48-11.14q2.49-3.64,7.84-3.65T329,74.71q2.46,3.66,2.46,11.14T329,97"></path><path class="cls-1" d="M374.07,62a21.29,21.29,0,0,0-5.37,6.42l-.78-4.23a8.69,8.69,0,0,0-.47-1.65,2.52,2.52,0,0,0-.77-1.1,3.2,3.2,0,0,0-1.27-.61,7.58,7.58,0,0,0-1.87-.19h-9v50.43h15.08V80.45A13.89,13.89,0,0,1,373,75.59a7.65,7.65,0,0,1,5.28-1.75,12.32,12.32,0,0,1,1.29.07l1.38.15,1.32.12c.42,0,.76,0,1,0a2.65,2.65,0,0,0,1.53-.39,2.34,2.34,0,0,0,.8-1.46l1-11.09a9,9,0,0,0-5.54-1.61,11.13,11.13,0,0,0-7,2.34"></path><path class="cls-1" d="M451.91,61.41a3.83,3.83,0,0,0-1.46,1.87L445.1,85.9c-.45,1.75-.86,3.44-1.21,5.06s-.67,3.24-.93,4.86q-.58-2.47-1.29-4.91t-1.43-5l-6-22.66a3.76,3.76,0,0,0-1.49-1.88,4.67,4.67,0,0,0-2.7-.75h-6.71a4.3,4.3,0,0,0-2.53.75,3.86,3.86,0,0,0-1.46,1.88L413,85.9q-.83,2.58-1.53,5t-1.34,4.83c-.26-1.62-.55-3.23-.88-4.83s-.69-3.27-1.11-5l-5.06-22.62a3.76,3.76,0,0,0-1.48-1.87,4.69,4.69,0,0,0-2.7-.75H386.84l15.66,50.43h11.67a3.1,3.1,0,0,0,3.21-2.53l7.29-25c.36-1.14.68-2.27.95-3.41s.53-2.27.76-3.4c.22,1.13.48,2.25.75,3.35s.59,2.22.95,3.36l7.2,25.14a3.9,3.9,0,0,0,1.07,2,2.43,2.43,0,0,0,1.65.58h12.26l15.66-50.43H454.44a4.3,4.3,0,0,0-2.53.75"></path><path class="cls-1" d="M506,65.3a17.69,17.69,0,0,0-6.23-4.13,21.76,21.76,0,0,0-8.24-1.49,35.61,35.61,0,0,0-11.94,2,30.85,30.85,0,0,0-10.14,6l2.73,4.72a6.68,6.68,0,0,0,1.75,1.85,4.32,4.32,0,0,0,2.62.77,7.17,7.17,0,0,0,3-.58c.84-.39,1.7-.83,2.6-1.31a19.14,19.14,0,0,1,3-1.32,14,14,0,0,1,4.38-.58,6.7,6.7,0,0,1,5.17,2q1.83,2,1.83,6.39v2.15a60.67,60.67,0,0,0-14.35,1.75,30,30,0,0,0-9,3.86,13.74,13.74,0,0,0-4.72,5.11A12.54,12.54,0,0,0,467.09,98a15.8,15.8,0,0,0,1.06,6,11.73,11.73,0,0,0,3.05,4.35A13,13,0,0,0,476,111a20.55,20.55,0,0,0,6.27.9,25,25,0,0,0,4.69-.41,18,18,0,0,0,4-1.27,23.44,23.44,0,0,0,3.63-2.06c1.16-.81,2.38-1.75,3.64-2.83l1.07,2.78a4.49,4.49,0,0,0,1.83,2.43,7.06,7.06,0,0,0,3.23.58h6.91V79.57a22.57,22.57,0,0,0-1.37-8A18,18,0,0,0,506,65.3m-9.41,32.27a15.61,15.61,0,0,1-4.43,3.31,11.93,11.93,0,0,1-5.1,1,6.94,6.94,0,0,1-4.14-1,4.24,4.24,0,0,1-1.41-3.63,4.69,4.69,0,0,1,.66-2.43,5.6,5.6,0,0,1,2.36-2,18.16,18.16,0,0,1,4.62-1.45,49.77,49.77,0,0,1,7.44-.78Z"></path><path class="cls-1" d="M552.54,61.41A4,4,0,0,0,551,63.28l-7.49,21.65c-.39,1-.76,2-1.12,3.06s-.71,2.08-1.06,3.11a46,46,0,0,0-1.9-6.08l-8.27-21.74a4.57,4.57,0,0,0-1.39-1.84,4.14,4.14,0,0,0-2.7-.78H513.73l20.13,46-9.72,20.42h11.28a4.29,4.29,0,0,0,4.76-2.91l27-63.52H555a4.3,4.3,0,0,0-2.43.75"></path><path class="cls-1" d="M620.78,74.42a23.74,23.74,0,0,0,5.5-2.77A16.7,16.7,0,0,0,630,68.12,13,13,0,0,0,632.16,64a15.66,15.66,0,0,0,.68-4.6,20.29,20.29,0,0,0-1.48-7.92,14.54,14.54,0,0,0-4.74-6,23.73,23.73,0,0,0-8.42-3.85,49.88,49.88,0,0,0-12.5-1.36H579.64v70.86h28.3a36.41,36.41,0,0,0,11.33-1.62,24.33,24.33,0,0,0,8.34-4.53,19.07,19.07,0,0,0,5.13-6.79,20.18,20.18,0,0,0,1.76-8.41,14.26,14.26,0,0,0-3.36-9.82q-3.36-3.8-10.36-5.5M596.07,52.54h9.63a22.43,22.43,0,0,1,4.8.44,8.2,8.2,0,0,1,3.33,1.45,6,6,0,0,1,1.94,2.7,12.09,12.09,0,0,1,.63,4.21,10.12,10.12,0,0,1-.8,4.28,6.13,6.13,0,0,1-2.33,2.67,10.32,10.32,0,0,1-3.72,1.37,28.17,28.17,0,0,1-4.91.39h-8.57Zm21.74,40.22a7.08,7.08,0,0,1-1.6,3A8.38,8.38,0,0,1,613,97.86a14.27,14.27,0,0,1-5.32.83H596.07V81h11.48a19.11,19.11,0,0,1,5.16.58A8.56,8.56,0,0,1,616,83.27a5.79,5.79,0,0,1,1.75,2.63,11.2,11.2,0,0,1,.51,3.5,12.7,12.7,0,0,1-.44,3.36"></path><path class="cls-1" d="M677.71,65.3a17.69,17.69,0,0,0-6.23-4.13,21.76,21.76,0,0,0-8.24-1.49,35.61,35.61,0,0,0-11.94,2,30.85,30.85,0,0,0-10.14,6l2.73,4.72a6.68,6.68,0,0,0,1.75,1.85,4.3,4.3,0,0,0,2.62.77,7.17,7.17,0,0,0,3-.58c.84-.39,1.7-.83,2.6-1.31a19.14,19.14,0,0,1,3-1.32,14,14,0,0,1,4.38-.58,6.7,6.7,0,0,1,5.17,2q1.83,2,1.83,6.39v2.15A60.67,60.67,0,0,0,654,83.47a30,30,0,0,0-9,3.86,13.74,13.74,0,0,0-4.72,5.11A12.54,12.54,0,0,0,638.83,98a15.8,15.8,0,0,0,1.06,6,11.73,11.73,0,0,0,3.05,4.35,13,13,0,0,0,4.79,2.65,20.55,20.55,0,0,0,6.27.9,25,25,0,0,0,4.69-.41,18,18,0,0,0,4-1.27,22.89,22.89,0,0,0,3.62-2.06A44.9,44.9,0,0,0,670,105.3l1.07,2.78a4.49,4.49,0,0,0,1.83,2.43,7.06,7.06,0,0,0,3.23.58H683V79.57a22.57,22.57,0,0,0-1.37-8,18,18,0,0,0-3.91-6.3M668.3,97.57a15.61,15.61,0,0,1-4.43,3.31,11.93,11.93,0,0,1-5.1,1,6.94,6.94,0,0,1-4.14-1,4.24,4.24,0,0,1-1.41-3.63,4.69,4.69,0,0,1,.66-2.43,5.6,5.6,0,0,1,2.36-2,18.16,18.16,0,0,1,4.62-1.45,49.77,49.77,0,0,1,7.44-.78Z"></path><path class="cls-1" d="M733.91,65.3a15.33,15.33,0,0,0-5.38-4,17.74,17.74,0,0,0-7.32-1.43,20.38,20.38,0,0,0-4.49.46,19.75,19.75,0,0,0-3.85,1.27,17.47,17.47,0,0,0-3.33,2,35.5,35.5,0,0,0-3,2.53l-.87-2.93a3.55,3.55,0,0,0-3.7-2.52h-9.34v50.43h15.08v-36a18.79,18.79,0,0,1,4.21-2.84,10.48,10.48,0,0,1,4.64-1.05,6.1,6.1,0,0,1,5,2.07A8.79,8.79,0,0,1,723.26,79v32.05h15.07V79a25.06,25.06,0,0,0-1.12-7.66,17.24,17.24,0,0,0-3.3-6.08"></path><path class="cls-1" d="M783.56,87a18.84,18.84,0,0,0-1.75-2.46,12,12,0,0,0-2-1.92,15.94,15.94,0,0,0,4.38-4l13-18H783.37a6,6,0,0,0-2.87.61,5.88,5.88,0,0,0-2,1.82L769,77.29a5,5,0,0,1-1.45,1.39,4.55,4.55,0,0,1-2.15.41h-2.23V38.28H748.06v72.81h15.08V88.77h2.92a5.08,5.08,0,0,1,2.18.36,3.8,3.8,0,0,1,1.42,1.58l9.53,17.85a4.64,4.64,0,0,0,2,2,6.82,6.82,0,0,0,2.92.56h13.62Z"></path><path class="cls-1" d="M152.62,151.57c0-.69.1-1.33.11-2,0-2.81.18-5.63.06-8.44a67.73,67.73,0,0,0-2.09-13.72,69.73,69.73,0,0,0-4.49-12.78,62.65,62.65,0,0,0-10.12-15.35,53.61,53.61,0,0,0-12.81-10.83,43.82,43.82,0,0,0-11.68-4.55,35.44,35.44,0,0,0-9.57-.65,25,25,0,0,0-4.87.9c-1.65.41-3.29.88-4.89,1.44-1.39.48-2.73,1.11-4.21,1.72l.41-.32c6-4.07,11.82-8.36,17.4-13a152.67,152.67,0,0,0,13.06-11.86A81.84,81.84,0,0,0,130.2,47.82a37.37,37.37,0,0,0,5.37-22.63A29.53,29.53,0,0,0,128.2,7.84a34.87,34.87,0,0,0-5.79-5.13c-.5-.36-.51-.55,0-.85a15.5,15.5,0,0,1,6.3-1.8c5.76-.43,10.79,1.56,15.47,4.66a56.39,56.39,0,0,1,13.06,12.69,70.24,70.24,0,0,1,8.13,13.24,21,21,0,0,1,1.1,2.59c.58,1.81,1.55,3.45,2.07,5.28s1.14,3.61,1.63,5.44a87.78,87.78,0,0,1,2.28,11.93,109.15,109.15,0,0,1,.76,17.33c-.11,3.59-.38,7.19-.77,10.76q-.72,6.42-1.78,12.79c-.51,3.07-1.22,6.1-1.93,9.13-1,4.34-2,8.69-3.24,13-1.29,4.56-2.68,9.11-4.27,13.58-1.47,4.13-3.2,8.17-5,12.18-1,2.33-2.33,4.53-3.52,6.79,0,0-.08.07-.16.14"></path><path class="cls-1" d="M64.56,151.57c0-.69.1-1.33.11-2,0-2.81.18-5.63.06-8.44a67,67,0,0,0-2.09-13.72,69.73,69.73,0,0,0-4.49-12.78A62.93,62.93,0,0,0,48,99.31,53.61,53.61,0,0,0,35.22,88.48a43.82,43.82,0,0,0-11.68-4.55A35.44,35.44,0,0,0,14,83.28a25,25,0,0,0-4.87.9c-1.65.41-3.29.88-4.89,1.44C2.82,86.1,1.48,86.73,0,87.34L.41,87c6-4.07,11.82-8.36,17.4-13A151.18,151.18,0,0,0,30.87,62.17,81.84,81.84,0,0,0,42.14,47.82a37.37,37.37,0,0,0,5.37-22.63A29.59,29.59,0,0,0,40.14,7.84a34.87,34.87,0,0,0-5.79-5.13c-.5-.36-.51-.55,0-.85a15.5,15.5,0,0,1,6.3-1.8c5.76-.43,10.79,1.56,15.47,4.66A56.39,56.39,0,0,1,69.22,17.41a70.76,70.76,0,0,1,8.13,13.24,21,21,0,0,1,1.1,2.59c.58,1.81,1.55,3.45,2.07,5.28s1.14,3.61,1.63,5.44a87.78,87.78,0,0,1,2.28,11.93,109.15,109.15,0,0,1,.76,17.33c-.11,3.59-.38,7.19-.77,10.76q-.72,6.42-1.78,12.79c-.51,3.07-1.22,6.1-1.93,9.13-1,4.34-2,8.69-3.24,13-1.29,4.56-2.68,9.11-4.27,13.58-1.47,4.13-3.2,8.17-5,12.18-1,2.33-2.33,4.53-3.52,6.79,0,0-.08.07-.16.14"></path></g></g></svg>